<svg id="Group_44" data-name="Group 44" xmlns="http://www.w3.org/2000/svg" width="257.286" height="36.05" viewBox="0 0 257.286 36.05">
  <path id="Path_10" data-name="Path 10" d="M1568.389,1949.166h-19.822l-6.673,25.593h-22.8l1.146-4.289h19.408l2.108-8.191h-19.347l1.146-4.291h19.407l2.228-8.822h-68.63l-1.149,4.435c-2.057-3.569-7.748-5.252-13.7-5.252-7.253,0-14.563,1.727-18.713,6.655l1.515-5.838h-25.12l-9.755,15.2.063-15.2h-12.85l-8.922,15.945-.83-15.945h-45.967l-2.293,8.822h11.928l-6.624,25.6H1357.4l6.625-25.6h10.863l2.332,25.6h13.37l8.327-14.794-.026,14.794h13.335l17.172-27.228-7.057,27.228h13.257l1.8-6.929c.958,5.245,7.978,7.743,15.448,7.743,9.881,0,20.117-3.61,22.772-12.385h-12.833a7.126,7.126,0,0,1-3.054,3.906c-1.425.767-3.029.864-5.194.864-2.593,0-5.4-1.06-4.572-3.324.915-2.508,5.438-2.844,11.979-4.433,5.753-1.395,11.619-3.612,13.717-9.351a10.108,10.108,0,0,0,.451-1.688H1486.2l-6.625,25.6h13.257l6.628-25.6h10.769l-6.672,25.6h57.3c14.943,0,23.291-7.762,24.019-19.235.717-11.229-8.6-15.185-16.491-15.185m-104.936,9.6c-.951,2.6-7.45,2.743-12.1,3.949-6.462,1.661-10.135,4.037-12.149,6.956l2.614-10.089h10.857a4.688,4.688,0,0,1,2.543-2.844,9.49,9.49,0,0,1,4.138-.772C1461.581,1955.961,1464.28,1956.493,1463.453,1958.762Zm98.13,16H1555.2l4.4-16.771h4.88c4.459,0,7.774,1.252,7.774,6.411C1572.249,1967.577,1570.26,1974.759,1561.583,1974.759Z" transform="translate(-1338.836 -1948.349)"/>
  <g id="Group_43" data-name="Group 43" transform="translate(248.963 0.829)">
    <path id="Path_11" data-name="Path 11" d="M1745.311,1956.828a4.154,4.154,0,0,1-7.076-2.987,3.969,3.969,0,0,1,1.3-3.033,4.077,4.077,0,0,1,2.863-1.13,4.173,4.173,0,0,1,2.914,7.149Zm-5.359-5.4a3.453,3.453,0,0,0,2.445,5.878,3.283,3.283,0,0,0,2.422-1.017,3.368,3.368,0,0,0,1.005-2.45,3.334,3.334,0,0,0-1-2.411,3.376,3.376,0,0,0-4.873,0Zm.621,4.726v-4.613c.286,0,.714,0,1.284,0s.888,0,.952.008a2.224,2.224,0,0,1,.91.237,1.163,1.163,0,0,1,.615,1.1,1.012,1.012,0,0,1-.324.84,1.513,1.513,0,0,1-.8.308,1.578,1.578,0,0,1,.656.267,1.256,1.256,0,0,1,.406,1.035v.412a.986.986,0,0,0,.009.135.627.627,0,0,0,.033.135l.042.13H1743.2a3.331,3.331,0,0,1-.077-.638,2.119,2.119,0,0,0-.076-.565.558.558,0,0,0-.339-.338,1.334,1.334,0,0,0-.413-.074l-.265-.017h-.254v1.632Zm2.2-3.7a2.026,2.026,0,0,0-.7-.1h-.294v1.338h.469a1.121,1.121,0,0,0,.661-.169.626.626,0,0,0,.238-.548A.528.528,0,0,0,1742.775,1952.452Z" transform="translate(-1738.235 -1949.679)"/>
  </g>
</svg>
