<svg xmlns="http://www.w3.org/2000/svg" width="145.456" height="145.065" viewBox="0 0 145.456 145.065">
  <g id="Group_431" data-name="Group 431" transform="translate(-680 -528.768)">
    <path id="Path_2698" data-name="Path 2698" d="M145.18,196.247A72.479,72.479,0,1,1,72.7,123.768a72.479,72.479,0,0,1,72.479,72.479" transform="translate(680 405)" fill="#eff1f5"/>
    <path id="Path_2699" data-name="Path 2699" d="M.032,196.279c-.011-.041-.021-.082-.032-.123.238-.133.169-.364.168-.563-.007-1.463.221-2.921.138-4.385-.036-.653.578-.7.9-1.011.277-.27.52.044.752.217.6.449,1.212.883,1.816,1.329a.424.424,0,0,0,.521.059c.2-.132.054-.27,0-.429-.245-.73-.479-1.464-.678-2.207-.076-.284-.179-.613.153-.855.589-.43,1.167-.875,1.755-1.307.183-.135.474-.24.405-.5-.086-.32-.419-.29-.689-.291q-1.1-.008-2.2,0a.466.466,0,0,1-.508-.323c-.289-.609-.434-1.26-.665-1.884a3.718,3.718,0,0,1-.257-2.329c.571-2.151,1.068-4.323,1.617-6.481.076-.3.2-.7.676-.347a.379.379,0,0,0,.421,0c.184-.12,0-.255-.024-.384-.1-.506-.545-1-.315-1.5.518-1.113.489-2.566,1.873-3.174.3-.129.208-.43.02-.473-.608-.14-.366-.493-.24-.794a53.619,53.619,0,0,1,2.617-5.539c.08-.145.067-.584.43-.322.286.207.823.277.627.85-.274.8-.559,1.6-.828,2.4-.049.147-.207.316-.058.465.178.179.367.012.507-.082.724-.49,1.446-.986,2.145-1.511a.413.413,0,0,1,.589,0c.7.46,1.342.99,2.006,1.495.158.12.361.271.571.107.23-.179.046-.351-.02-.548-.258-.767-.488-1.544-.706-2.323a.553.553,0,0,1,.233-.654c.628-.447,1.231-.93,1.848-1.394.162-.122.428-.2.357-.451-.083-.291-.377-.2-.6-.2-.734-.008-1.467-.005-2.2,0a.663.663,0,0,1-.716-.524,16.471,16.471,0,0,0-.758-2.178,1.288,1.288,0,0,1,.235-1.542c1.313-1.777,2.47-3.662,3.9-5.363s2.836-3.445,4.379-5.056a74.049,74.049,0,0,1,6.335-5.869,74.975,74.975,0,0,1,8.11-5.813A72.569,72.569,0,0,1,42,130.49c1.449-.685,2.963-1.231,4.408-1.922a2.136,2.136,0,0,1,2.663.462c.177.17.232.263.145.512-.28.8-.514,1.624-.761,2.439-.052.172-.179.364.06.5.186.1.307-.033.443-.133.622-.458,1.266-.887,1.868-1.369a.668.668,0,0,1,.967.039c.609.474,1.25.908,1.869,1.369.147.109.3.195.457.1.177-.1.027-.267.01-.4a9.953,9.953,0,0,0-.653-2.21c-.147-.389-.247-.676.247-.964a19.506,19.506,0,0,0,1.8-1.348c.163-.122.412-.188.314-.465-.089-.251-.325-.223-.533-.224-.8,0-1.593,0-2.389,0-.153,0-.377.062-.4-.183-.017-.21.195-.168.323-.211,1.392-.471,2.829-.763,4.257-1.095a71.242,71.242,0,0,1,7.319-1.248,38.639,38.639,0,0,1,6-.3c.566.018.693.179.689.719-.023,3.373-.009,6.746-.014,10.119a4.178,4.178,0,0,0,.128,1.18q0,4.945,0,9.892c0,.75.027,1.5.041,2.251q-.01,5.835-.017,11.669a2.208,2.208,0,0,0,.082.426,2.369,2.369,0,0,0-.1.483q0,5.765.009,11.528c-.2.158-.144.38-.144.584q0,5.4,0,10.806c0,.2-.067.426.135.584l.048.2c-.019.249-.053.5-.053.747q-.012,5.619-.015,11.238-20.481,0-40.962,0l-30.218.008m25.725-26.633c-.2-.257-.425-.193-.623-.195-.69-.007-1.381-.018-2.071,0a.692.692,0,0,1-.8-.6c-.231-.827-.54-1.632-.821-2.459a.751.751,0,0,0-.384.558c-.2.637-.441,1.264-.606,1.909a.727.727,0,0,1-.853.612c-.669-.023-1.338-.02-2.008-.017-.211,0-.463-.09-.618.214.636.451,1.248.925,1.9,1.335a.952.952,0,0,1,.45,1.348c-.25.6-.426,1.222-.623,1.838-.047.148-.172.337,0,.459.146.1.269-.064.381-.144.409-.29.806-.6,1.215-.887,1.322-.937.863-.9,2.135.007a8.011,8.011,0,0,0,1.721,1.1c-.279-.886-.48-1.678-.78-2.429a.891.891,0,0,1,.424-1.245c.66-.435,1.285-.924,1.957-1.414m32.753,21.9a6.978,6.978,0,0,0,2.155-1.331.826.826,0,0,1,1.241.03c.627.5,1.3.946,1.977,1.428a.781.781,0,0,0-.041-.691c-.2-.639-.372-1.287-.6-1.913a.665.665,0,0,1,.313-.929c.724-.475,1.4-1.021,2.1-1.542-.209-.263-.434-.177-.629-.18-.712-.01-1.424-.015-2.136,0a.577.577,0,0,1-.669-.491c-.188-.683-.44-1.349-.662-2.023-.058-.178-.079-.424-.289-.446-.26-.026-.214.257-.268.412-.235.671-.479,1.34-.664,2.025a.623.623,0,0,1-.723.52c-.754-.015-1.508-.005-2.262,0-.143,0-.333-.038-.394.116-.072.185.138.227.246.308.571.425,1.123.881,1.725,1.255a.773.773,0,0,1,.341,1.1c-.288.771-.51,1.567-.76,2.352M26.829,177.94a11.58,11.58,0,0,0,1.723,1.359c1,.727,1,.714.615,1.871-.216.642-.4,1.295-.6,1.943l.142.1a23.662,23.662,0,0,0,1.961-1.416c.53-.464.9-.356,1.391.036a13.328,13.328,0,0,0,2.113,1.46c-.316-.976-.557-1.815-.863-2.63a.725.725,0,0,1,.3-1c.723-.488,1.417-1.018,2.128-1.533-.2-.26-.427-.177-.624-.179-.671-.007-1.343-.034-2.011.009-.523.034-.73-.2-.888-.661a19.717,19.717,0,0,0-.87-2.531,15.019,15.019,0,0,0-.864,2.444c-.166.493-.355.816-1,.752-.82-.081-1.653-.019-2.656-.019M51.235,174.7c-.321.992-.606,1.837-.865,2.689a.669.669,0,0,1-.764.562c-.69-.033-1.383-.01-2.074-.006-.182,0-.436-.081-.515.117-.09.223.186.289.323.392.536.4,1.07.81,1.633,1.171a.737.737,0,0,1,.329,1.041,15.6,15.6,0,0,0-.8,2.681c.864-.629,1.6-1.144,2.309-1.692a.647.647,0,0,1,.935-.021c.6.483,1.248.918,1.876,1.372.1.071.2.205.325.126.165-.1.055-.254.011-.39-.239-.735-.436-1.487-.727-2.2-.167-.408-.045-.584.264-.818a13.48,13.48,0,0,0,2.126-1.7,20.253,20.253,0,0,0-2.223-.082c-1.026,0-1.006-.007-1.323-.973a12.2,12.2,0,0,0-.843-2.268M31.418,157.9a1.109,1.109,0,0,0-.415.664c-.18.579-.379,1.151-.539,1.735a.814.814,0,0,1-.97.708c-.823-.06-1.654-.015-2.482-.015-.02.058-.039.117-.058.175l1.588,1.166c1.043.764,1.022.756.6,2a8.428,8.428,0,0,0-.552,2.007c.809-.579,1.517-1.047,2.179-1.574a.793.793,0,0,1,1.148-.009,13.951,13.951,0,0,0,2.256,1.584c-.322-1-.569-1.856-.881-2.69a.653.653,0,0,1,.273-.9c.728-.51,1.435-1.052,2.156-1.585-.194-.24-.417-.172-.614-.175-.649-.011-1.3-.044-1.946,0a.783.783,0,0,1-.942-.668c-.222-.8-.516-1.578-.8-2.428m-14.4,28.517c-.014.069-.027.138-.041.207.691.5,1.375,1.006,2.075,1.492a.689.689,0,0,1,.338.937c-.259.661-.446,1.35-.664,2.027-.051.159-.152.351-.014.473.163.143.3-.048.427-.139.564-.4,1.149-.774,1.675-1.217a.74.74,0,0,1,1.092-.018,14.717,14.717,0,0,0,2.273,1.568c-.3-.946-.546-1.762-.83-2.564a.778.778,0,0,1,.323-1.064c.6-.385,1.164-.819,1.732-1.247.1-.078.306-.138.247-.32s-.241-.132-.38-.131c-.733,0-1.467,0-2.2.028a.719.719,0,0,1-.814-.6c-.2-.7-.448-1.392-.679-2.087-.043-.128.007-.349-.185-.349s-.242.2-.293.362c-.221.694-.464,1.382-.66,2.083a.675.675,0,0,1-.8.574c-.872-.04-1.747-.012-2.621-.012m-2.891-3.361c-.267-.853-.515-1.712-.81-2.555a.58.58,0,0,1,.271-.78c.638-.439,1.258-.9,1.878-1.367.1-.076.315-.116.222-.313-.061-.129-.219-.1-.341-.1-.712,0-1.426-.024-2.136.008-.511.024-.812-.108-.946-.656-.167-.687-.433-1.35-.654-2.025-.043-.132-.015-.32-.226-.316-.194,0-.2.183-.248.316-.092.277-.183.555-.26.837-.5,1.836-.5,1.836-2.4,1.838-.335,0-.67-.009-1,0-.155,0-.342-.048-.465.208.63.457,1.238.97,1.915,1.367.6.355.637.749.407,1.34-.284.729-.483,1.49-.718,2.238l.15.113c.723-.518,1.459-1.018,2.163-1.56a.648.648,0,0,1,.933.006,7.757,7.757,0,0,0,2.267,1.4m12.9-39.024c-.017.061-.033.122-.05.184.7.517,1.384,1.049,2.095,1.545.335.234.483.446.315.876-.259.66-.438,1.35-.659,2.025-.058.176-.223.4-.068.521.21.17.365-.106.52-.212a14.38,14.38,0,0,0,1.516-1.11.851.851,0,0,1,1.3,0c.636.517,1.323.972,1.989,1.454a8.4,8.4,0,0,0-.589-2.285,1.015,1.015,0,0,1,.5-1.482c.638-.4,1.218-.89,1.823-1.34l-.057-.172c-.85,0-1.7-.024-2.552.009a.763.763,0,0,1-.89-.656c-.23-.831-.529-1.642-.843-2.6a14.015,14.015,0,0,0-.883,2.488c-.166.544-.4.827-1.043.77-.8-.072-1.612-.017-2.418-.017m11.491,30.684a1.232,1.232,0,0,0,.29-.069c.53-.374,1.057-.752,1.585-1.129,1.062-.758.725-.789,1.9.029.555.387,1.1.792,1.646,1.188l.142-.108c-.277-.868-.54-1.74-.837-2.6a.545.545,0,0,1,.231-.739c.671-.465,1.319-.964,1.974-1.451.079-.059.21-.1.183-.225-.033-.16-.173-.149-.3-.148-.691.006-1.388-.043-2.072.031s-.947-.246-1.126-.853a13.608,13.608,0,0,0-.86-2.426c-.32.981-.591,1.788-.847,2.6a.76.76,0,0,1-.9.645,18.884,18.884,0,0,0-1.948-.012c-.214,0-.467-.069-.627.224q.792.571,1.576,1.137c1.01.727,1.008.726.623,1.9-.21.643-.41,1.289-.635,2M43.95,191.7a.488.488,0,0,0,.013-.5c-.229-.695-.436-1.4-.69-2.085a.713.713,0,0,1,.338-.988c.709-.462,1.371-1,2.048-1.5-.136-.243-.316-.2-.475-.2a14.506,14.506,0,0,0-1.945.008c-.718.092-.923-.263-1.113-.852a11.278,11.278,0,0,0-.835-2.323,18.021,18.021,0,0,0-.878,2.544c-.149.471-.355.671-.889.632-.838-.061-1.685-.016-2.528-.016a7.114,7.114,0,0,0,1.712,1.488c.835.639.832.624.492,1.621a14.712,14.712,0,0,0-.667,2.272c.775-.556,1.441-.984,2.048-1.485a.929.929,0,0,1,1.412-.032c.6.515,1.279.929,1.957,1.411m12.8-22.135c.8.584,1.429,1.094,2.111,1.517a.847.847,0,0,1,.393,1.2c-.294.779-.517,1.586-.814,2.521a14.662,14.662,0,0,0,2.239-1.551.755.755,0,0,1,1.1-.04c.569.459,1.178.868,1.771,1.3.113.082.23.225.379.085.108-.1.034-.235,0-.353-.229-.716-.429-1.443-.7-2.144-.175-.454-.007-.676.349-.919.7-.478,1.37-1,2.116-1.55a2.37,2.37,0,0,0-1.283-.17c-.663-.053-1.452.248-1.959-.126-.479-.353-.454-1.174-.712-1.761-.166-.377-.079-.893-.587-1.17-.229.724-.438,1.415-.667,2.1-.33.987-.336.975-1.384.988a14.206,14.206,0,0,0-2.349.081m-5.514-11.8c-.233.709-.406,1.284-.61,1.847-.592,1.631-.1,1.359-1.836,1.394-.609.012-1.218,0-1.826,0-.009.06-.018.121-.026.182.7.521,1.38,1.065,2.1,1.553a.682.682,0,0,1,.279.948c-.3.813-.544,1.645-.819,2.493a.992.992,0,0,0,.741-.311c.528-.375,1.05-.76,1.555-1.166a.648.648,0,0,1,.938-.026c.606.482,1.243.924,1.871,1.377.1.07.214.191.336.117.171-.1.049-.268.01-.392q-.273-.867-.57-1.726c-.331-.962-.326-.95.483-1.552a13.5,13.5,0,0,0,1.9-1.5c-.945,0-1.737-.062-2.514.019-.73.076-1-.263-1.164-.882a11.139,11.139,0,0,0-.853-2.376m-.011-16.924c-.317.971-.6,1.792-.849,2.621a.708.708,0,0,1-.812.591c-.689-.036-1.381-.019-2.071-.011-.172,0-.423-.107-.494.126-.058.191.183.25.31.345.553.412,1.1.843,1.673,1.218a.725.725,0,0,1,.328,1.037c-.32.805-.546,1.648-.843,2.57a2.137,2.137,0,0,0,.323-.137c.7-.494,1.409-.977,2.09-1.5a.579.579,0,0,1,.829.012c.576.45,1.176.87,1.771,1.3.143.1.288.327.479.175.149-.119,0-.309-.046-.463-.215-.656-.391-1.328-.657-1.962a.718.718,0,0,1,.328-1.03c.7-.468,1.369-.993,2.051-1.493-.015-.067-.029-.133-.043-.2H53.382c-1.011,0-.991-.007-1.314-.984a10.215,10.215,0,0,0-.839-2.216m-9.952-8.518c-.222.653-.4,1.138-.552,1.633-.49,1.615-.486,1.61-2.177,1.619a6.355,6.355,0,0,0-1.723.1c.833.607,1.527,1.138,2.25,1.626a.635.635,0,0,1,.283.887c-.269.7-.471,1.427-.7,2.142-.044.136-.168.3-.039.406.172.142.3-.061.423-.148q.747-.519,1.485-1.051c.818-.587.81-.579,1.626.008a14.884,14.884,0,0,0,1.978,1.347c-.218-.706-.372-1.24-.547-1.768-.483-1.464-.48-1.455.745-2.374a7.037,7.037,0,0,0,1.447-1.183c-.973,0-1.786-.048-2.589.016-.61.049-.856-.2-1.015-.741a16.053,16.053,0,0,0-.891-2.519M65.7,135.7a.988.988,0,0,0-.686-.148c-.691,0-1.382-.013-2.071.014a.614.614,0,0,1-.729-.5c-.21-.741-.472-1.467-.708-2.2-.048-.147-.119-.3-.271-.313-.2-.01-.161.2-.2.328-.239.711-.5,1.417-.7,2.139a.624.624,0,0,1-.708.538c-.711-.016-1.423-.005-2.134.008-.178,0-.438-.1-.516.093-.091.229.2.267.336.37.5.378.987.78,1.519,1.108a.9.9,0,0,1,.411,1.289,7.455,7.455,0,0,0-.63,2.336,21.135,21.135,0,0,0,2.068-1.421.774.774,0,0,1,1.142-.027c.653.541,1.375,1,2.118,1.525a1.078,1.078,0,0,0-.066-.685c-.217-.654-.4-1.318-.646-1.961a.683.683,0,0,1,.326-.938c.719-.48,1.405-1.01,2.152-1.554M24.171,157.81c-.323-1-.589-1.861-.878-2.71a.59.59,0,0,1,.241-.8c.627-.417,1.235-.864,1.833-1.321.11-.083.364-.134.268-.356-.069-.159-.26-.1-.4-.1-.691,0-1.383-.02-2.073.006a.764.764,0,0,1-.905-.644c-.184-.707-.442-1.395-.678-2.088-.042-.122-.008-.342-.217-.318-.154.018-.211.189-.256.331-.218.676-.466,1.345-.638,2.033a.809.809,0,0,1-.985.69c-.821-.045-1.646-.012-2.47-.012-.014.057-.028.114-.043.171.622.446,1.22.931,1.872,1.325a1,1,0,0,1,.455,1.455c-.246.575-.4,1.188-.6,1.784-.044.137-.142.305-.014.414.183.154.293-.064.416-.151.581-.411,1.183-.8,1.724-1.258a.717.717,0,0,1,1.046-.019,14.188,14.188,0,0,0,2.3,1.566m14.4-.041a4.568,4.568,0,0,0,1.107-.678c.563-.35,1.029-1.078,1.648-1.05.639.028,1.136.717,1.715,1.088.312.2.55.54,1.058.624-.279-.889-.486-1.7-.791-2.467a.8.8,0,0,1,.366-1.128,9.617,9.617,0,0,0,1.959-1.56,13.561,13.561,0,0,0-2.428-.065c-.638.052-.893-.221-1.051-.783-.223-.788-.509-1.558-.768-2.335l-.174,0c-.262.8-.546,1.6-.777,2.415a.813.813,0,0,1-.965.706c-.821-.055-1.648-.014-2.488-.014.023.145.016.2.038.219.5.376,1.006.748,1.51,1.12,1.246.92.993.543.593,1.954a10.192,10.192,0,0,0-.552,1.951m27.183-5.144a2.72,2.72,0,0,0-.436-.1c-.795-.007-1.59-.022-2.385,0a.619.619,0,0,1-.724-.513c-.2-.723-.455-1.432-.684-2.148-.054-.167-.13-.355-.312-.346s-.139.226-.183.358c-.182.554-.36,1.109-.547,1.662-.335.991-.337.99-1.383.99H56.951l-.042.181c.667.489,1.319,1,2.007,1.458a.822.822,0,0,1,.347,1.152,12.2,12.2,0,0,0-.739,2.439,4.6,4.6,0,0,0,1.389-.872c1.319-1.027,1.305-1.03,2.649-.064a6.152,6.152,0,0,0,1.515.965c-.312-.971-.559-1.805-.851-2.623a.681.681,0,0,1,.316-.937c.722-.475,1.4-1.009,2.215-1.6" transform="translate(680 405)" fill="#3e3d6e"/>
    <path id="Path_2700" data-name="Path 2700" d="M72.72,208.506h70.473c.147,0,.3.012.44,0,.523-.051.73.067.613.687a77.147,77.147,0,0,1-2.9,10.977.584.584,0,0,1-.682.47c-.125-.009-.252,0-.377,0H5.5c-1.253,0-1.275.007-1.677-1.165a65.62,65.62,0,0,1-2.419-9.029c-.093-.493-.181-.988-.292-1.477-.077-.337.042-.471.377-.459.251.008.5,0,.754,0H72.72" transform="translate(680 405)" fill="#b22337"/>
    <path id="Path_2701" data-name="Path 2701" d="M72.725,232.743q30.993,0,61.985,0c.219,0,.519-.119.636.118.106.215-.135.417-.247.606a76.3,76.3,0,0,1-7.947,10.9,1.432,1.432,0,0,1-1.21.494q-53.026-.014-106.053.012a2.3,2.3,0,0,1-1.968-.882,77.08,77.08,0,0,1-7.653-10.572c-.4-.671-.389-.68.409-.68H72.725Z" transform="translate(680 405)" fill="#b12235"/>
    <path id="Path_2702" data-name="Path 2702" d="M71.212,196.268q.006-5.619.015-11.237c0-.25.034-.5.053-.748l.241.031h.011c.44-.005.879-.016,1.319-.016q35.4,0,70.807-.015c.6,0,.886.141.9.765.014.479.1.956.156,1.433-.065.071-.072.136.024.187.03.151.061.3.091.452-.06.108-.084.213.038.3q.037.486.075.969a.37.37,0,0,0,.054.444.936.936,0,0,1,.079.58.29.29,0,0,0,.034.4q.049.81.1,1.617a.926.926,0,0,0,.055.808,4.412,4.412,0,0,1,.087,1.462l.048,2.436c-.011.066-.022.131-.032.2h-.046v.045c-.229.013-.458.037-.687.037q-36.436,0-72.874,0c-.146,0-.292-.013-.438-.019l-.113-.123" transform="translate(680 405)" fill="#b12235"/>
    <path id="Path_2703" data-name="Path 2703" d="M71.24,172.106q-.006-5.765-.009-11.529a2.426,2.426,0,0,1,.1-.482c.314-.008.628-.023.942-.023q31.317,0,62.634-.016a1.31,1.31,0,0,1,1.357.791,79.208,79.208,0,0,1,4.82,10.622,1.185,1.185,0,0,1,.152.724l.005-.007q-27.123.006-54.247.011-7.323,0-14.646-.016c-.251,0-.5-.014-.752-.022l-.354-.053" transform="translate(680 405)" fill="#b12236"/>
    <path id="Path_2704" data-name="Path 2704" d="M33.2,257.028h78.98a69.926,69.926,0,0,1-33.007,11.516,72.34,72.34,0,0,1-46.008-11.358c.012-.053.023-.105.035-.158" transform="translate(680 405)" fill="#b12336"/>
    <path id="Path_2705" data-name="Path 2705" d="M71.265,148c-.014-.75-.04-1.5-.041-2.251q-.006-4.945,0-9.892a.421.421,0,0,0,.084-.03q20.362,0,40.726-.005a3.607,3.607,0,0,1,2.212.676A74.979,74.979,0,0,1,126.7,147.488c.1.1.263.2.2.36s-.252.111-.394.115c-.209.006-.419,0-.628,0H72.331c-.355,0-.711.022-1.066.033" transform="translate(680 405)" fill="#b22337"/>
    <path id="Path_2706" data-name="Path 2706" d="M71.24,172.106l.354.053c-.358.1-.308.387-.308.657q0,5.292,0,10.585a1.472,1.472,0,0,1-.058.678c-.2-.158-.134-.383-.134-.583q-.006-5.4,0-10.807c0-.2-.052-.425.144-.583" transform="translate(680 405)" fill="#666285"/>
    <path id="Path_2707" data-name="Path 2707" d="M145.4,196.129q-.025-1.218-.048-2.436a9.552,9.552,0,0,1,.048,2.436" transform="translate(680 405)" fill="#666285"/>
    <path id="Path_2708" data-name="Path 2708" d="M145.267,192.231a.93.93,0,0,1-.055-.808.781.781,0,0,1,.055.808" transform="translate(680 405)" fill="#666285"/>
    <path id="Path_2709" data-name="Path 2709" d="M145,188.83a.372.372,0,0,1-.054-.444.285.285,0,0,1,.054.444" transform="translate(680 405)" fill="#666285"/>
    <path id="Path_2710" data-name="Path 2710" d="M145.113,189.806a.288.288,0,0,1-.034-.4.253.253,0,0,1,.034.4" transform="translate(680 405)" fill="#666285"/>
    <path id="Path_2711" data-name="Path 2711" d="M144.871,187.417c-.122-.086-.1-.19-.038-.3.153.082.15.183.038.3" transform="translate(680 405)" fill="#666285"/>
    <path id="Path_2712" data-name="Path 2712" d="M144.742,186.667c-.1-.051-.089-.116-.024-.187.1.05.154.107.024.187" transform="translate(680 405)" fill="#666285"/>
    <path id="Path_2713" data-name="Path 2713" d="M141.239,172.186l0,.007.041,0-.037-.01" transform="translate(680 405)" fill="#666285"/>
    <path id="Path_2714" data-name="Path 2714" d="M145.324,196.37v-.046h.045v.044Z" transform="translate(680 405)" fill="#666285"/>
    <path id="Path_2715" data-name="Path 2715" d="M71.532,184.313h-.011l.007-.035Z" transform="translate(680 405)" fill="#666285"/>
  </g>
</svg>
